<?xml version="1.0" encoding="utf-8"?>
<!-- Generator: Adobe Illustrator 26.2.1, SVG Export Plug-In . SVG Version: 6.00 Build 0)  -->
<svg version="1.1" id="Capa_1" xmlns="http://www.w3.org/2000/svg" xmlns:xlink="http://www.w3.org/1999/xlink" x="0px" y="0px"
	 viewBox="0 0 130.71 47.29" style="enable-background:new 0 0 130.71 47.29;" xml:space="preserve">
<style type="text/css">
	.st0{clip-path:url(#SVGID_00000031209884082846393200000011701036290959971977_);}
	.st1{fill:#551825;}
	.st2{fill:#C1B4A4;}
</style>
<g>
	<defs>
		<rect id="SVGID_1_" x="0.92" y="0.91" width="128.76" height="44.22"/>
	</defs>
	<clipPath id="SVGID_00000073690284791405118010000011544164940909608876_">
		<use xlink:href="#SVGID_1_"  style="overflow:visible;"/>
	</clipPath>
	<g id="Grupo_48" style="clip-path:url(#SVGID_00000073690284791405118010000011544164940909608876_);">
		<path id="Trazado_10" class="st1" d="M0.92,42.94l1.17-2.63c1.74,1.29,3.84,2,6.01,2c2.83,0,4.03-1.01,4.03-2.37
			c0-3.92-10.82-1.35-10.82-8.11c0-2.93,2.34-5.43,7.33-5.43c2.13-0.03,4.23,0.52,6.06,1.61l-1.07,2.63
			c-1.52-0.91-3.25-1.4-5.01-1.43c-2.81,0-3.95,1.09-3.95,2.47c0,3.87,10.79,1.35,10.79,8.03c0,2.91-2.37,5.41-7.36,5.41
			C5.53,45.21,3.01,44.44,0.92,42.94"/>
		<path id="Trazado_11" class="st1" d="M32.45,42.04v2.83H18.8v-18.2h13.29v2.83h-9.91v4.73h8.79v2.78h-8.79v5.02L32.45,42.04z"/>
		<path id="Trazado_12" class="st1" d="M48.57,35.56h3.2v7.25c-2.05,1.54-4.56,2.36-7.12,2.31c-5.64,0-9.8-3.93-9.8-9.36
			s4.16-9.36,9.85-9.36c2.75-0.13,5.42,0.95,7.31,2.96l-2.13,2.08c-1.31-1.37-3.13-2.12-5.02-2.08c-3.53-0.13-6.5,2.62-6.63,6.16
			c-0.13,3.53,2.62,6.5,6.16,6.63c0.15,0.01,0.3,0.01,0.45,0c1.31,0.03,2.6-0.3,3.74-0.94L48.57,35.56z"/>
		<path id="Trazado_13" class="st1" d="M75.69,26.67h3.38v15.34h9.52v2.86h-12.9L75.69,26.67z"/>
		<path id="Trazado_14" class="st1" d="M65.16,26.67h-3.33l-8.19,18.2h19.73L65.16,26.67z M58.26,42.22l0.67-1.56l4.55-10.61
			l4.55,10.61l0.68,1.56H58.26z"/>
		<path id="Trazado_15" class="st2" d="M121.46,26.67h-3.33l-8.19,18.2h19.74L121.46,26.67z M114.56,42.22l0.67-1.56l4.55-10.61
			l4.55,10.61l0.68,1.56H114.56z"/>
		<rect id="Rectángulo_51" x="61.83" y="8.97" class="st2" width="3.23" height="17.7"/>
		<rect id="Rectángulo_52" x="118.19" y="8.97" class="st2" width="3.23" height="17.7"/>
		<rect id="Rectángulo_53" x="61.83" y="8.97" class="st2" width="59.59" height="3.23"/>
		<path id="Trazado_16" class="st2" d="M93.24,0.91h-5.18l2.59,43.96h3.03l2.59-43.96H93.24z"/>
	</g>
</g>
</svg>
