<?xml version="1.0" encoding="utf-8"?>
<!-- Generator: Adobe Illustrator 26.2.1, SVG Export Plug-In . SVG Version: 6.00 Build 0)  -->
<svg version="1.1" id="Capa_1" xmlns="http://www.w3.org/2000/svg" xmlns:xlink="http://www.w3.org/1999/xlink" x="0px" y="0px"
	 viewBox="0 0 66.51 67.4" style="enable-background:new 0 0 66.51 67.4;" xml:space="preserve">
<style type="text/css">
	.st0{fill-rule:evenodd;clip-rule:evenodd;fill:#F0E7D9;}
</style>
<path id="Trazado_18" class="st0" d="M65.5,32.04C64.91,14.39,50.12,0.55,32.46,1.14C15.85,1.69,2.43,14.87,1.58,31.47
	c-0.02,0.46-0.03,0.93-0.03,1.39c-0.01,5.78,1.58,11.46,4.58,16.4L0.37,66.28l17.71-5.63c15.5,8.51,34.97,2.84,43.48-12.66
	c2.55-4.64,3.9-9.83,3.95-15.12c0-0.27,0-0.54-0.02-0.81 M33.53,59.55c-5.26,0.01-10.4-1.52-14.79-4.42L8.41,58.42l3.35-9.91
	C8.43,43.98,6.64,38.5,6.64,32.87c0-0.87,0.04-1.73,0.14-2.59C8.33,15.5,21.56,4.78,36.34,6.33c12.83,1.35,22.89,11.61,23.99,24.46
	c0.06,0.69,0.09,1.38,0.09,2.08C60.35,47.65,48.32,59.59,33.53,59.55"/>
<path id="Trazado_19" class="st0" d="M48.19,39.26c-0.79-0.39-4.64-2.27-5.36-2.53c-0.72-0.26-1.24-0.39-1.77,0.39
	c-0.52,0.77-2.04,2.53-2.49,3.04c-0.45,0.51-0.91,0.58-1.7,0.19c-2.31-0.91-4.44-2.21-6.3-3.86c-1.71-1.56-3.18-3.37-4.36-5.37
	c-0.45-0.77-0.04-1.2,0.35-1.59c0.36-0.36,0.77-0.91,1.18-1.36c0.11-0.14,0.19-0.26,0.28-0.37c0.18-0.3,0.35-0.61,0.49-0.93
	c0.22-0.43,0.2-0.95-0.06-1.36c-0.19-0.39-1.77-4.22-2.42-5.79s-1.3-1.28-1.77-1.28s-0.96-0.08-1.5-0.08
	c-0.8,0.02-1.56,0.37-2.1,0.96c-1.79,1.68-2.78,4.04-2.74,6.5c0.01,0.9,0.15,1.79,0.41,2.65c0.62,1.94,1.56,3.77,2.8,5.39
	c0.39,0.51,5.42,8.62,13.38,11.75c7.96,3.13,7.98,2.07,9.42,1.93c2.21-0.41,4.14-1.76,5.29-3.7c0.52-1.16,0.68-2.45,0.46-3.7
	c-0.19-0.31-0.72-0.51-1.5-0.9"/>
</svg>
