<?xml version="1.0" encoding="utf-8"?>
<!-- Generator: Adobe Illustrator 26.2.1, SVG Export Plug-In . SVG Version: 6.00 Build 0)  -->
<svg version="1.1" id="Capa_1" xmlns="http://www.w3.org/2000/svg" xmlns:xlink="http://www.w3.org/1999/xlink" x="0px" y="0px"
	 viewBox="0 0 66.51 67.4" style="enable-background:new 0 0 66.51 67.4;" xml:space="preserve">
<style type="text/css">
	.st0{fill:#F0E7D9;}
</style>
<path id="Trazado_2947" class="st0" d="M33.25,6.82c8.75,0,9.79,0.03,13.24,0.2c2.08,0.02,4.14,0.41,6.09,1.13
	c2.86,1.1,5.12,3.36,6.22,6.22c0.72,1.95,1.1,4.01,1.13,6.09c0.16,3.45,0.2,4.49,0.2,13.25s-0.03,9.79-0.2,13.24
	c-0.03,2.08-0.41,4.14-1.13,6.09c-1.1,2.86-3.36,5.12-6.22,6.22c-1.95,0.72-4.01,1.1-6.09,1.13c-3.45,0.16-4.49,0.2-13.24,0.2
	s-9.79-0.03-13.24-0.2c-2.08-0.02-4.14-0.41-6.09-1.13c-2.86-1.1-5.12-3.36-6.22-6.22c-0.72-1.95-1.1-4.01-1.13-6.09
	c-0.16-3.45-0.19-4.49-0.19-13.24s0.03-9.79,0.19-13.25c0.03-2.08,0.41-4.14,1.13-6.09c1.1-2.86,3.36-5.12,6.22-6.22
	c1.95-0.72,4.01-1.1,6.09-1.13C23.46,6.87,24.5,6.82,33.25,6.82 M33.25,0.91c-8.9,0-10.02,0.04-13.52,0.2
	c-2.72,0.05-5.41,0.57-7.96,1.52c-4.4,1.7-7.88,5.18-9.58,9.59c-0.96,2.55-1.47,5.24-1.52,7.96c-0.16,3.5-0.2,4.62-0.2,13.52
	s0.04,10.02,0.2,13.52c0.05,2.72,0.57,5.41,1.52,7.96c1.7,4.4,5.18,7.89,9.58,9.59c2.55,0.96,5.24,1.47,7.96,1.52
	c3.5,0.16,4.61,0.2,13.52,0.2s10.02-0.04,13.52-0.2c2.72-0.05,5.41-0.57,7.96-1.52c4.4-1.7,7.89-5.18,9.59-9.59
	c0.95-2.55,1.47-5.24,1.52-7.96c0.16-3.5,0.2-4.62,0.2-13.52S66,23.68,65.84,20.18c-0.05-2.72-0.57-5.41-1.52-7.96
	c-1.7-4.41-5.19-7.89-9.6-9.6c-2.55-0.96-5.24-1.47-7.96-1.52C43.27,0.95,42.15,0.91,33.25,0.91"/>
<path id="Trazado_2948" class="st0" d="M33.25,16.87c-9.3,0-16.83,7.54-16.83,16.83s7.54,16.83,16.83,16.83
	c9.3,0,16.83-7.54,16.83-16.83S42.55,16.87,33.25,16.87L33.25,16.87 M33.25,44.62c-6.03,0-10.93-4.89-10.92-10.93
	c0-6.03,4.89-10.93,10.93-10.92c6.03,0,10.92,4.89,10.92,10.93C44.18,39.73,39.29,44.62,33.25,44.62
	C33.26,44.62,33.26,44.62,33.25,44.62"/>
<path id="Trazado_2949" class="st0" d="M54.69,16.2c0,2.17-1.76,3.93-3.93,3.93c-2.17,0-3.93-1.76-3.93-3.93s1.76-3.93,3.93-3.93
	l0,0C52.92,12.27,54.69,14.03,54.69,16.2"/>
</svg>
