<?xml version="1.0" encoding="utf-8"?>
<!-- Generator: Adobe Illustrator 26.2.1, SVG Export Plug-In . SVG Version: 6.00 Build 0)  -->
<svg version="1.1" id="Capa_1" xmlns="http://www.w3.org/2000/svg" xmlns:xlink="http://www.w3.org/1999/xlink" x="0px" y="0px"
	 viewBox="0 0 71.56 71.56" style="enable-background:new 0 0 71.56 71.56;" xml:space="preserve">
<style type="text/css">
	.st0{fill:#0B406A;}
	.st1{fill:none;stroke:#F0E7D9;stroke-width:2;stroke-miterlimit:10;}
</style>
<path id="Trazado_2950" class="st0" d="M35.78,0c19.76,0,35.78,16.02,35.78,35.78S55.54,71.56,35.78,71.56S0,55.54,0,35.78
	S16.02,0,35.78,0z"/>
<g id="_8S6PE4" transform="translate(43.564 31.075)">
	<g id="Grupo_164" transform="translate(0)">
		<path id="Trazado_302" class="st1" d="M-18.62,9.45c-0.21-0.96-1.64-7.88-1.85-8.84l-0.62-2.88c-0.21-0.96-0.41-1.92-0.62-2.88
			c-0.21-0.96-0.41-1.92-0.62-2.88c-0.21-0.96-0.41-1.92-0.62-2.88c-0.08-0.36-0.18-0.96-0.25-1.32"/>
		<path id="Trazado_303" class="st1" d="M-23.19-12.25L-23.19-12.25c0.11,0.4,0.16,0.81,0.25,1.21c2.39-0.85,4.66-2.03,7.06-2.42
			c2.56-0.44,5.18-0.43,7.74,0.04c5.76,1.15,11.02,0.42,15.89-2.91c0.18-0.08,0.36-0.15,0.55-0.2C7.9-12.47,7.24-8.66,3.61-5.66
			l8.37,6.83C8.96,3.5,5.55,4.9,1.78,4.91c-2.77,0.01-5.54-0.57-8.32-0.88c-4.21-0.47-8.07,0.58-11.72,2.65
			c-0.96,0.55-0.69,1.21-0.54,1.93l4.39,20.65"/>
	</g>
</g>
</svg>
