<?xml version="1.0" encoding="utf-8"?>
<!-- Generator: Adobe Illustrator 26.2.1, SVG Export Plug-In . SVG Version: 6.00 Build 0)  -->
<svg version="1.1" id="Capa_1" xmlns="http://www.w3.org/2000/svg" xmlns:xlink="http://www.w3.org/1999/xlink" x="0px" y="0px"
	 viewBox="0 0 71.56 71.56" style="enable-background:new 0 0 71.56 71.56;" xml:space="preserve">
<style type="text/css">
	.st0{fill:#0B406A;}
	.st1{fill:#FFFFFF;stroke:#F0E7D9;}
</style>
<path id="Trazado_2938" class="st0" d="M35.78,0c19.76,0,35.78,16.02,35.78,35.78S55.54,71.56,35.78,71.56S0,55.54,0,35.78
	S16.02,0,35.78,0z"/>
<g id="Grupo_1541" transform="translate(30.129 40.452)">
	<g id="G19NFR" transform="translate(0 0)">
		<g id="Grupo_161" transform="translate(0 0)">
			<path id="Trazado_300" class="st1" d="M6.91-21.5c4.42,0,8.84,0,13.27,0c0.34,0,0.68-0.01,1.01-0.03
				c0.36-0.04,0.72,0.12,0.92,0.43c1.54,2.07,3.09,4.13,4.64,6.19c0.91,1.21,1.83,2.43,2.75,3.64c0.52,0.69,0.53,0.69-0.05,1.34
				c-2.4,2.74-4.8,5.48-7.2,8.22C18.73,2.3,15.22,6.31,11.7,10.32c-1.46,1.66-2.91,3.32-4.37,4.98c-0.31,0.35-0.49,0.35-0.8,0
				c-1.21-1.38-2.41-2.75-3.62-4.13C-0.2,7.61-3.32,4.06-6.43,0.5c-3.11-3.55-6.22-7.1-9.33-10.65c-0.37-0.42-0.36-0.49,0-0.95
				c0.6-0.78,1.19-1.57,1.78-2.35c1.96-2.59,3.92-5.17,5.87-7.76c0.16-0.21,0.41-0.32,0.67-0.29C-2.66-21.5,2.12-21.5,6.91-21.5z
				 M-14.76-10.24L6.03,13.49c-0.03-0.17-0.05-0.25-0.07-0.33c-0.42-1.49-0.84-2.98-1.26-4.47C3.59,4.8,2.48,0.9,1.37-2.99
				C0.72-5.29,0.06-7.6-0.59-9.91c-0.02-0.21-0.2-0.36-0.41-0.34c-0.01,0-0.02,0-0.03,0c-4.45,0.01-8.9,0.01-13.36,0.01
				L-14.76-10.24z M6.91,13.57l0.08-0.01c2.33-7.92,4.66-15.84,6.99-23.78H0.16L6.91,13.57z M7.89,13.35l0.06,0.04l20.68-23.61
				H14.82L7.89,13.35z M-1.17-11.05l-6.52-9.36l-7.09,9.36L-1.17-11.05z M28.66-11.05l-7.08-9.35l-6.28,9.35L28.66-11.05z
				 M0.43-11.06h13.25L6.94-20.4L0.43-11.06z M-0.37-11.32l6.52-9.35H-6.88L-0.37-11.32z M7.74-20.68l6.76,9.34l6.29-9.34H7.74z"/>
		</g>
	</g>
</g>
</svg>
