<?xml version="1.0" encoding="utf-8"?>
<!-- Generator: Adobe Illustrator 26.2.1, SVG Export Plug-In . SVG Version: 6.00 Build 0)  -->
<svg version="1.1" id="Capa_1" xmlns="http://www.w3.org/2000/svg" xmlns:xlink="http://www.w3.org/1999/xlink" x="0px" y="0px"
	 viewBox="0 0 71.56 71.56" style="enable-background:new 0 0 71.56 71.56;" xml:space="preserve">
<style type="text/css">
	.st0{fill:#0B406A;}
	.st1{fill:#F0E7D9;}
</style>
<path id="Trazado_2939" class="st0" d="M35.78-0.19c19.81,0,35.88,16.06,35.88,35.88S55.59,71.56,35.78,71.56S-0.1,55.5-0.1,35.68
	S15.97-0.19,35.78-0.19z"/>
<g id="J8ykqA" transform="translate(25.135 28.019)">
	<g id="Grupo_163" transform="translate(0 0)">
		<path id="Trazado_301" class="st1" d="M39.25,1.19c-2.05,2.04-4.1,4.08-6.16,6.13c2.06,2.05,4.12,4.1,6.24,6.21
			c-0.2,0.02-0.28,0.03-0.38,0.03c-2.75,0-5.51,0-8.26,0.01c-0.12,0.01-0.23,0.09-0.29,0.2c-0.68,2.3-1.73,4.47-3.12,6.42
			c-2.19,3.13-5.15,5.65-8.6,7.3c-2.53,1.23-5.27,1.96-8.08,2.14c-4.02,0.32-8.05-0.48-11.65-2.31c-5.75-2.95-9.64-7.53-11.45-13.74
			c-1.78-5.79-1.05-12.06,2-17.28c2.58-4.66,6.77-8.22,11.79-10c4.01-1.49,8.37-1.78,12.54-0.82c4.36,0.94,8.32,3.19,11.37,6.44
			c1.03,1.08,1.95,2.27,2.74,3.54C29-2.86,29.83-1.05,30.4,0.84c0.08,0.26,0.23,0.24,0.42,0.24h8.38L39.25,1.19z M22.97,10.4
			c-0.54,2.42-1.69,4.66-3.35,6.5c-1.64,1.83-3.73,3.21-6.06,3.99c-2.32,0.8-4.81,0.97-7.21,0.5C-0.03,20.2-4.8,14.88-5.3,8.42
			C-5.81,1.91-1.85-4.11,4.33-6.22c3.04-1.09,6.36-1.08,9.38,0.04c4.9,1.79,7.92,5.31,9.27,10.37c0.79-0.8,1.59-1.52,2.28-2.33
			c0.45-0.61,1.21-0.91,1.96-0.79c0.46,0.03,0.92,0.04,1.37,0.01c-2.17-7.6-10.44-15.41-21.76-14.27
			C-4.08-12.07-12.21-2.57-11.63,8.4c0.54,10.88,9.47,19.45,20.37,19.55c11.1,0.11,18.11-7.93,19.84-14.37
			c-0.45-0.02-0.9-0.02-1.34,0.01c-0.74,0.15-1.5-0.16-1.93-0.78c-0.15-0.19-0.32-0.36-0.5-0.52C24.21,11.68,23.62,11.07,22.97,10.4
			L22.97,10.4z M15.19,6.42c0.04,0.01,0.08,0.02,0.12,0.02c1.74,0,3.47,0,5.21,0c0.1,0,0.19-0.03,0.27-0.08
			c0.44-0.35,0.81-0.73,0.54-1.37c-0.01-0.03-0.02-0.06-0.02-0.1c-1.19-5.08-4.27-8.43-9.32-9.74C8.12-5.93,3.97-4.98,0.96-2.32
			C-2.51,0.59-4.05,4.4-3.46,8.9c0.65,4.9,3.39,8.3,7.98,10.16c2.25,0.89,4.72,1.08,7.08,0.55c5.06-1.09,8.94-5.16,9.78-10.27
			c0.03-0.58-0.41-1.09-0.99-1.15c-1.64,0-3.28,0-4.92,0c-0.1,0-0.19,0.01-0.28,0.02c-0.5,3.39-3.63,5.75-7.03,5.31
			c-3.13-0.4-5.47-3.07-5.45-6.23c0.01-3.16,2.39-5.82,5.53-6.18C11.62,0.72,14.69,3.07,15.19,6.42L15.19,6.42z M13.4,8.18H7.66
			V6.43h5.73c-0.45-2.23-2.5-3.77-4.77-3.6C6.34,3.02,4.56,4.88,4.47,7.16c-0.07,2.25,1.52,4.2,3.73,4.59
			C10.62,12.17,12.92,10.58,13.4,8.18L13.4,8.18z M35.09,2.87c-0.08-0.02-0.16-0.03-0.24-0.04c-2.61,0-5.22,0-7.83,0.01
			c-0.14,0.01-0.27,0.06-0.36,0.16c-1.04,1.02-2.06,2.04-3.09,3.07c-0.11,0.11-0.21,0.23-0.33,0.37c0.09,0.01,0.12,0.02,0.15,0.02
			c2.62,0,5.24,0.01,7.86,0c0.15-0.01,0.29-0.08,0.39-0.19c0.75-0.73,1.48-1.48,2.23-2.21C34.25,3.66,34.65,3.29,35.09,2.87
			L35.09,2.87z M35.05,11.83c-0.03-0.06-0.07-0.11-0.11-0.17c-1.11-1.11-2.22-2.23-3.34-3.33c-0.12-0.09-0.26-0.14-0.41-0.14
			c-2.56-0.01-5.11-0.01-7.67,0c-0.08,0-0.16,0.02-0.29,0.03c0.12,0.12,0.2,0.21,0.28,0.29c1.03,1.03,2.06,2.05,3.08,3.08
			c0.15,0.16,0.36,0.25,0.57,0.24c2.45-0.01,4.89-0.01,7.34-0.01H35.05z"/>
	</g>
</g>
</svg>
